# xmcd
#
# Track frame offsets:
# 150
# 14274
# 29448
# 48274
# 65976
# 83253
# 96613
# 109399
# 126597
# 139111
# 161977
# 175002
# 187353
# 205558
# 222425
# 235705
# 254147
# 270701
# 288989
# 306842
#
# Disc length: 4349 seconds
#
# Revision: 0
# Processed by: cddbd v1.5.2PL0 Copyright (c) Steve Scherf et al.
# Submitted via: Axialis_AX_CDPlayer 2.6
#
DISCID=3910fb14
DTITLE=The Bastard Sons Of Johnny Cash - Road To Texacali
DYEAR=1900
DGENRE=
TTITLE0=Texas Sun
TTITLE1=Blade
TTITLE2=The Road To Bakersfield
TTITLE3=440 Horses
TTITLE4=Long Black Veil
TTITLE5=1970 Monte Carlo
TTITLE6=Interstate Cannonball
TTITLE7=California Sky
TTITLE8=Borderline Of The Heart
TTITLE9=Memphis Woman
TTITLE10=Hard Times
TTITLE11=King Of The World
TTITLE12=No Easy Road
TTITLE13=Lonely Tonight
TTITLE14=Damage Is Done
TTITLE15=Burn Down
TTITLE16=Austin Night
TTITLE17=Cryin' Over You
TTITLE18=Distance Between
TTITLE19=Radio Girl
EXTD=www.myspace.com/bsojc
EXTT0=
EXTT1=
EXTT2=
EXTT3=
EXTT4=
EXTT5=
EXTT6=
EXTT7=
EXTT8=
EXTT9=
EXTT10=
EXTT11=
EXTT12=
EXTT13=
EXTT14=
EXTT15=
EXTT16=
EXTT17=
EXTT18=
EXTT19=
PLAYORDER=
